<?xml version="1.0" encoding="UTF-8"?>
<svg id="Layer_2" data-name="Layer 2" xmlns="http://www.w3.org/2000/svg" viewBox="0 0 152.98 24.89">
  <defs>
    <style>
      .cls-1 {
        fill: #01013a;
        stroke-width: 0px;
      }
    </style>
  </defs>
  <g id="Layer_1-2" data-name="Layer 1">
    <g>
      <path class="cls-1" d="m0,24.08V.77h9.23c6.49,0,11.09,4.32,11.09,11.41s-4.14,11.9-10.32,11.9H0Zm8.78-4.88c4,0,5.4-2.18,5.4-7.02s-1.3-6.46-5.79-6.46h-2.56v13.48h2.95Z"/>
      <path class="cls-1" d="m34.66,24.08l-1.16-4.39h-7.33l-1.37,4.39h-6.35L26.34.77h7.02l7.83,23.31h-6.53Zm-4.84-16.95l-2.14,7.65h4.11l-1.97-7.65Z"/>
      <path class="cls-1" d="m42.63,24.08V5.76h-6.67V.77h19.41v4.98h-6.74v18.32h-6Z"/>
      <path class="cls-1" d="m65.88,24.08l-1.16-4.39h-7.33l-1.37,4.39h-6.35L57.56.77h7.02l7.83,23.31h-6.53Zm-4.84-16.95l-2.14,7.65h4.11l-1.97-7.65Z"/>
      <path class="cls-1" d="m73.33,24.08V.77h11.94c5.34,0,7.2,2.49,7.2,5.83,0,2.35-1.37,4.21-3.2,4.88,2.03.56,3.9,2.46,3.9,5.72,0,4.11-2.46,6.88-8.91,6.88h-10.92Zm5.79-18.36v4.14h5.12c1.44,0,2.32-.6,2.32-2.11,0-1.33-.88-2.03-2.32-2.03h-5.12Zm5.44,13.48c1.79,0,2.67-.95,2.67-2.7,0-1.54-.84-2.6-2.67-2.6h-5.44v5.3h5.44Z"/>
      <path class="cls-1" d="m108.45,24.08l-1.16-4.39h-7.34l-1.37,4.39h-6.35L100.13.77h7.02l7.83,23.31h-6.53Zm-4.84-16.95l-2.14,7.65h4.11l-1.97-7.65Z"/>
      <path class="cls-1" d="m127.52,7.65c-.03-2.07-1.33-2.95-4-2.95-2.11,0-3.34.56-3.34,2.03,0,1.19.77,1.86,3.02,2.56.53.18,4.67,1.26,6.85,2.32,2.39,1.16,3.79,2.77,3.79,5.93,0,4.77-3.23,7.34-9.51,7.34s-10-2.56-10.11-7.79h5.58c.14,1.79,1.55,2.95,4.64,2.95,2.81,0,3.76-.95,3.76-2.32,0-1.26-.84-1.86-3.3-2.63-3.65-1.16-5.62-1.79-7.23-2.74-2.07-1.23-2.91-2.81-2.91-5.12,0-4.25,2.88-7.23,8.63-7.23s9.34,3.3,9.62,7.65h-5.48Z"/>
      <path class="cls-1" d="m134.86,24.08V.77h17.55v4.98h-11.72v3.62h10.71v5.05h-10.71v4.56h12.29v5.09h-18.11Z"/>
    </g>
  </g>
</svg>