<?xml version="1.0" encoding="UTF-8"?>
<svg id="Layer_2" data-name="Layer 2" xmlns="http://www.w3.org/2000/svg" viewBox="0 0 264.52 24.89">
  <defs>
    <style>
      .cls-1 {
        fill: #01013a;
        stroke-width: 0px;
      }
    </style>
  </defs>
  <g id="Layer_1-2" data-name="Layer 1">
    <g>
      <path class="cls-1" d="m17.55,24.08v-14.25l-3.05,14.25h-5.93l-3.02-14.15v14.15H0V.77h8.78l2.88,15.62L14.53.77h8.63v23.31h-5.62Z"/>
      <path class="cls-1" d="m40.31,24.08l-1.16-4.39h-7.34l-1.37,4.39h-6.35L31.99.77h7.02l7.83,23.31h-6.53Zm-4.84-16.95l-2.14,7.65h4.11l-1.96-7.65Z"/>
      <path class="cls-1" d="m59.38,7.65c-.04-2.07-1.33-2.95-4-2.95-2.11,0-3.33.56-3.33,2.03,0,1.19.77,1.86,3.02,2.56.53.18,4.67,1.26,6.85,2.32,2.39,1.16,3.79,2.77,3.79,5.93,0,4.77-3.23,7.34-9.51,7.34s-10-2.56-10.11-7.79h5.58c.14,1.79,1.54,2.95,4.63,2.95,2.81,0,3.76-.95,3.76-2.32,0-1.26-.84-1.86-3.3-2.63-3.65-1.16-5.62-1.79-7.23-2.74-2.07-1.23-2.91-2.81-2.91-5.12,0-4.25,2.88-7.23,8.63-7.23,6.04,0,9.34,3.3,9.62,7.65h-5.47Z"/>
      <path class="cls-1" d="m71.64,24.08V5.76h-6.67V.77h19.41v4.98h-6.74v18.32h-6Z"/>
      <path class="cls-1" d="m85.38,24.08V.77h17.55v4.98h-11.72v3.62h10.71v5.05h-10.71v4.56h12.29v5.09h-18.11Z"/>
      <path class="cls-1" d="m117.22,24.08v-6.32c0-2.18-.63-2.7-2.18-2.7h-4.91v9.02h-5.83V.77h12.15c4.56,0,7.13,2.6,7.13,6.35,0,3.41-1.51,5.12-3.65,5.79,2,.6,3.19,1.65,3.19,4.46v6.7h-5.9Zm-1.72-13.23c1.86,0,2.67-.88,2.67-2.63,0-1.61-.81-2.49-2.67-2.49h-5.37v5.12h5.37Z"/>
      <path class="cls-1" d="m145.95,16.08c-.98,5.3-4.74,8.81-10.28,8.81-6.25,0-11.02-4.18-11.02-12.18s4.25-12.71,11.09-12.71c5.97,0,9.76,3.72,10.21,8.42h-6c-.49-2.25-2.14-3.26-4.18-3.26-3.58,0-5.05,2.74-5.05,7.2s1.37,7.3,4.77,7.3c2.63,0,3.9-1.33,4.46-3.58h6Z"/>
      <path class="cls-1" d="m146.77,24.08V.77h6v18.08h10.81v5.23h-16.81Z"/>
      <path class="cls-1" d="m180.09,24.08l-1.16-4.39h-7.34l-1.37,4.39h-6.35l7.9-23.31h7.02l7.83,23.31h-6.53Zm-4.84-16.95l-2.14,7.65h4.11l-1.96-7.65Z"/>
      <path class="cls-1" d="m199.16,7.65c-.04-2.07-1.33-2.95-4-2.95-2.11,0-3.33.56-3.33,2.03,0,1.19.77,1.86,3.02,2.56.53.18,4.67,1.26,6.85,2.32,2.39,1.16,3.79,2.77,3.79,5.93,0,4.77-3.23,7.34-9.51,7.34s-10-2.56-10.11-7.79h5.58c.14,1.79,1.54,2.95,4.63,2.95,2.81,0,3.76-.95,3.76-2.32,0-1.26-.84-1.86-3.3-2.63-3.65-1.16-5.62-1.79-7.23-2.74-2.07-1.23-2.91-2.81-2.91-5.12,0-4.25,2.88-7.23,8.63-7.23,6.04,0,9.34,3.3,9.62,7.65h-5.47Z"/>
      <path class="cls-1" d="m219.22,7.65c-.04-2.07-1.33-2.95-4-2.95-2.11,0-3.33.56-3.33,2.03,0,1.19.77,1.86,3.02,2.56.53.18,4.67,1.26,6.85,2.32,2.39,1.16,3.79,2.77,3.79,5.93,0,4.77-3.23,7.34-9.51,7.34s-10-2.56-10.11-7.79h5.58c.14,1.79,1.54,2.95,4.63,2.95,2.81,0,3.76-.95,3.76-2.32,0-1.26-.84-1.86-3.3-2.63-3.65-1.16-5.62-1.79-7.23-2.74-2.07-1.23-2.91-2.81-2.91-5.12,0-4.25,2.88-7.23,8.63-7.23,6.04,0,9.34,3.3,9.62,7.65h-5.47Z"/>
      <path class="cls-1" d="m226.56,24.08V.77h17.55v4.98h-11.72v3.62h10.71v5.05h-10.71v4.56h12.29v5.09h-18.11Z"/>
      <path class="cls-1" d="m258.2,7.65c-.04-2.07-1.33-2.95-4-2.95-2.11,0-3.33.56-3.33,2.03,0,1.19.77,1.86,3.02,2.56.53.18,4.67,1.26,6.85,2.32,2.39,1.16,3.79,2.77,3.79,5.93,0,4.77-3.23,7.34-9.51,7.34s-10-2.56-10.11-7.79h5.58c.14,1.79,1.54,2.95,4.63,2.95,2.81,0,3.76-.95,3.76-2.32,0-1.26-.84-1.86-3.3-2.63-3.65-1.16-5.62-1.79-7.23-2.74-2.07-1.23-2.91-2.81-2.91-5.12,0-4.25,2.88-7.23,8.63-7.23,6.04,0,9.34,3.3,9.62,7.65h-5.47Z"/>
    </g>
  </g>
</svg>