<?xml version="1.0" encoding="UTF-8"?>
<svg id="Layer_2" data-name="Layer 2" xmlns="http://www.w3.org/2000/svg" viewBox="0 0 327.25 57.78">
  <defs>
    <style>
      .cls-1 {
        fill: #01013a;
        stroke-width: 0px;
      }
    </style>
  </defs>
  <g id="Layer_1-2" data-name="Layer 1">
    <g>
      <path class="cls-1" d="m15.48,55.9V13.36H0V1.79h45.06v11.57h-15.65v42.54h-13.93Z"/>
      <path class="cls-1" d="m42.73,55.9V15.81h12.22v2.45c3.59-3.5,6.84-3.5,10.59-3.5h.98v13.28c-1.06-.17-2.04-.25-2.93-.25-5.22,0-7.82,1.47-7.82,7.01v21.11h-13.04Z"/>
      <path class="cls-1" d="m92.6,55.9c-.57-.9-.9-2.04-.98-3.34-1.55,2.52-5.38,4.4-11.9,4.4-9.29,0-13.2-4.4-13.2-12.22,0-9.21,8.07-11.9,18.91-13.61,3.91-.57,4.97-1.39,4.97-3.59,0-2.04-2.61-2.85-5.13-2.85-4.16,0-5.62,1.63-5.87,4.15h-11.57c.25-8.31,4.81-14.1,18.09-14.1s17.52,5.7,17.52,15.81v25.34h-10.84Zm-2.04-18.09c-.73.57-2.04,1.14-4.89,1.79-5.22,1.3-6.6,2.69-6.6,4.97,0,2.04,1.39,3.1,3.59,3.1,5.87,0,7.66-3.83,7.82-7.33l.08-2.53Z"/>
      <path class="cls-1" d="m142.99,41.4c-1.14,9.29-8.96,15.56-18.9,15.56-11.17,0-18.82-7.25-18.82-21.59s7.66-20.62,19.15-20.62c10.76,0,18.01,5.95,18.66,15.4h-13.12c-.57-2.85-2.77-4.64-5.62-4.64-3.18,0-6.19,2.04-6.19,9.53s3.02,11,5.87,11c3.18,0,5.62-1.55,5.87-4.64h13.12Z"/>
      <path class="cls-1" d="m167.62,55.9l-6.85-16.46-2.77,3.34v13.12h-13.12V1.14h13.12v26.73l8.72-12.06h15.89l-12.55,14.59,12.23,25.51h-14.67Z"/>
      <path class="cls-1" d="m213.19,17.77c-.08-4.81-3.1-6.84-9.29-6.84-4.89,0-7.74,1.3-7.74,4.72,0,2.77,1.79,4.32,7.01,5.95,1.22.41,10.84,2.93,15.89,5.38,5.54,2.69,8.8,6.44,8.8,13.77,0,11.08-7.5,17.03-22.09,17.03s-23.22-5.95-23.47-18.09h12.96c.33,4.16,3.59,6.84,10.76,6.84,6.52,0,8.72-2.2,8.72-5.38,0-2.93-1.95-4.32-7.66-6.11-8.47-2.69-13.04-4.16-16.79-6.36-4.81-2.85-6.76-6.52-6.76-11.9,0-9.86,6.68-16.79,20.05-16.79,14.02,0,21.68,7.66,22.33,17.77h-12.71Z"/>
      <path class="cls-1" d="m229.92,11V1.14h13.04v9.86h-13.04Zm0,44.9V15.81h13.04v40.09h-13.04Z"/>
      <path class="cls-1" d="m273.04,55.9l-.16-4.57c-2.12,3.99-6.19,5.62-9.7,5.62-10.11,0-17.36-8.23-17.36-21.59,0-11.65,5.87-20.62,16.22-20.62,4.64,0,8.64,1.39,10.68,5.62V1.14h12.79v54.76h-12.47Zm.16-19.88c0-7.34-2.93-10.19-7.25-10.19s-6.93,2.77-6.93,10.19,2.61,10.35,6.93,10.35,7.25-3.02,7.25-10.35Z"/>
      <path class="cls-1" d="m301.09,39.11c.33,4.07,3.18,7.5,6.85,7.5,2.52,0,4.89-1.06,5.29-2.53h13.37c-2.53,8.23-9.29,12.88-18.01,12.88-13.69,0-20.54-7.41-20.54-21.84,0-12.39,7.26-20.37,19.8-20.37,11.41,0,19.39,6.76,19.39,20.05,0,1.39-.08,2.85-.25,4.32h-25.91Zm13.12-7.58c-.41-4.57-2.45-6.52-6.44-6.52s-6.11,1.95-6.52,6.52h12.96Z"/>
    </g>
  </g>
</svg>