<?xml version="1.0" encoding="UTF-8"?>
<svg id="Layer_2" data-name="Layer 2" xmlns="http://www.w3.org/2000/svg" viewBox="0 0 227.96 24.89">
  <defs>
    <style>
      .cls-1 {
        fill: #01013a;
        stroke-width: 0px;
      }
    </style>
  </defs>
  <g id="Layer_1-2" data-name="Layer 1">
    <g>
      <path class="cls-1" d="m6.67,24.08V5.76H0V.77h19.41v4.98h-6.74v18.32h-6Z"/>
      <path class="cls-1" d="m33.32,24.08v-6.32c0-2.18-.63-2.7-2.18-2.7h-4.91v9.02h-5.83V.77h12.15c4.56,0,7.13,2.6,7.13,6.35,0,3.41-1.51,5.12-3.65,5.79,2,.6,3.19,1.65,3.19,4.46v6.7h-5.9Zm-1.72-13.23c1.86,0,2.67-.88,2.67-2.63,0-1.61-.81-2.49-2.67-2.49h-5.37v5.12h5.37Z"/>
      <path class="cls-1" d="m56.54,24.08l-1.16-4.39h-7.34l-1.37,4.39h-6.35L48.22.77h7.02l7.83,23.31h-6.53Zm-4.84-16.95l-2.14,7.65h4.11l-1.96-7.65Z"/>
      <path class="cls-1" d="m82.56,16.08c-.98,5.3-4.74,8.81-10.28,8.81-6.25,0-11.02-4.18-11.02-12.18S65.5,0,72.34,0c5.97,0,9.76,3.72,10.21,8.42h-6c-.49-2.25-2.14-3.26-4.18-3.26-3.58,0-5.05,2.74-5.05,7.2s1.37,7.3,4.77,7.3c2.63,0,3.9-1.33,4.46-3.58h6Z"/>
      <path class="cls-1" d="m97.1,24.08l-6.25-9.79-1.58,1.51v8.28h-5.9V.77h5.9v7.76l7.13-7.76h7.76l-9.09,9.06,9.34,14.25h-7.3Z"/>
      <path class="cls-1" d="m105.22,24.08V.77h6v23.31h-6Z"/>
      <path class="cls-1" d="m126.74,24.08l-8.39-13.86v13.86h-5.55V.77h6.32l7.51,13.02V.77h5.62v23.31h-5.51Z"/>
      <path class="cls-1" d="m139.85,24.08V5.76h-6.67V.77h19.41v4.98h-6.74v18.32h-6Z"/>
      <path class="cls-1" d="m153.58,24.08V.77h17.55v4.98h-11.72v3.62h10.71v5.05h-10.71v4.56h12.29v5.09h-18.11Z"/>
      <path class="cls-1" d="m172.51,24.08V.77h6v18.08h10.81v5.23h-16.81Z"/>
      <path class="cls-1" d="m214.51,24.08l-1.16-4.39h-7.34l-1.37,4.39h-6.35l7.9-23.31h7.02l7.83,23.31h-6.53Zm-4.84-16.95l-2.14,7.65h4.11l-1.96-7.65Z"/>
      <path class="cls-1" d="m221.96,24.08V.77h6v23.31h-6Z"/>
    </g>
  </g>
</svg>