<?xml version="1.0" encoding="UTF-8"?>
<svg id="Layer_2" data-name="Layer 2" xmlns="http://www.w3.org/2000/svg" viewBox="0 0 1922 288.2">
  <defs>
    <style>
      .cls-1 {
        fill: #d0fe00;
        stroke-width: 0px;
      }
    </style>
  </defs>
  <g id="Layer_1-2" data-name="Layer 1">
    <path class="cls-1" d="m1922,.11c-.3,1.93-1.83,2.59-2.87,3.5-63.4,54.72-126.84,109.41-190.26,164.1-45.63,39.35-91.27,78.72-136.86,118.12-1.79,1.55-3.5,2.36-5.94,2.36-85.48-.07-170.95-.06-256.43-.06h-4.09c74.28-63.4,147.64-126.04,222.04-189.55h-6.08c-171.08,0-342.17,0-513.27-.01-1.46,0-2.93-.04-4.4-.08H0V0h1160.79v.11c251.97-.01,503.95-.01,755.93,0h5.28Z"/>
  </g>
</svg>